<?xml version="1.0" encoding="utf-8"?>
<!-- Generator: Adobe Illustrator 24.0.2, SVG Export Plug-In . SVG Version: 6.00 Build 0)  -->
<svg version="1.1" id="Layer_1" xmlns="http://www.w3.org/2000/svg" xmlns:xlink="http://www.w3.org/1999/xlink" x="0px" y="0px"
	 viewBox="0 0 269.2 105.7" style="enable-background:new 0 0 269.2 105.7;" xml:space="preserve">
<style type="text/css">
	.st0{fill:url(#SVGID_1_);}
	.st1{fill:none;stroke:#FFFFFF;stroke-width:0.5;stroke-miterlimit:10;}
	.st2{fill:#FFFFFF;}
	.st3{fill:none;}
</style>
<g id="Layer_3">
	<g>
		<g>
			
				<linearGradient id="SVGID_1_" gradientUnits="userSpaceOnUse" x1="134.6034" y1="142.1335" x2="134.6034" y2="39.4627" gradientTransform="matrix(1 0 0 -1 0 143.6)">
				<stop  offset="0" style="stop-color:#3A4A9F"/>
				<stop  offset="1" style="stop-color:#383C85"/>
			</linearGradient>
			<path class="st0" d="M268.5,43.6l0.3-1.5l-0.4-4.7l-1.1-2.4l-0.3-1.3l-0.6-0.2l0.2-0.9l-1-0.8c0,0-0.8-2-0.5-3.3l-1.3-0.5
				l0.1-1.3l-1.1-0.8l-0.3-1l-1.3-1.4v-1.2c0,0-1.3-1-1.3-2.3l-1.8-3.3l-1.5-2.8l0.3-2l-1.3-1.4V8.2L254.9,7l-0.6-1.8
				c0,0-1.9-0.7-1.9,0.7c0,0,0.1,2.7,0.7,3.3c0,0-2.7-0.3-2.9-2.6l-0.6-3.7l-89-0.1h-6.7C152.2,1.3,149.5,0,145,0
				c-8.8,0-11.6,0-11.6,0v2.9h-4.1c-1.9-1.1-10.2-5.1-19.9,0H100V1.5h-9.1v1.4h-6L84,1.2L67.6,1.5v3.1h2v14.1L69,18.5
				c0,0-8.3,1.2-10.6,6.5c0,0-0.8-1.9-2.4-2.2l-3,0.1l-2.3,2.9c0,0-3.9-0.8-4.3,3.4L46.1,31L45,32.2h-2.9c0,0-1.5,0.7-1.8,1.7
				c0,0-3.6,0.6-4.2,2.3l-2.3,0.9L33,37.3l-0.3,1.3l-1,0.3L30.5,39c0,0,0.7,1.7-1.5,0.4c0,0-4-0.3-7.2,1.4c0,0-2.3,0.4-2.5,1.2
				c0,0-5.7,2.8-5.8,6.7c0,0,0,4.2-3.4,0.7c0,0,0-0.6-1.6-0.9L4,49c0,0-4.2,3.2-4,7.2c0.2,4,0.2,4.8,2.2,7s3.5,2.5,3.5,2.5
				s14.7-0.2,17.8,0c3.2,0.2,15.8,1.7,20.5-1c0,0,1.3-2.7,3.8-2.6l5.7-0.4c0,0,3.5-3.9,8.3-3.8c0,0,2.4-0.8,2.4-2.2h5.7
				c-1.2,0.9-2.3,2.4-2.3,4.5c0,4.2,0,6.8,0,6.8s1.8,7.6,8.6,7.6h16.6L92.7,71h-3.6V55.8h4.8L104,74.7h4V60.8l5.1,4.9v2
				c0,0-0.5,7.3,9,7.5s10.1-4.4,10.4-7.1c0.1-0.8,0.1-1.6,0.2-2.5l4.7-0.1v5.2h-2.1l-0.1,3.5h9.5v-3.4h-2.3v-3.2l16,15.8l1.4,1.8
				l2.9,2.5l0.5,1.8l1.7,0.3l0.6,1.5l1.2,0.3c0,0,1.1,2.3,2.5,3.2l-0.7,1.6l2.8,0.4l0.2,0.7l0.9,0.3v0.8l1.2,0.8l0.8-0.1
				c0,0,0.3,2,1.8,2.5c0,0,0.5-0.4,1.4,1.1c0,0,0.7,0.8,1.2,0.8l1,1.7l5.6,0.3l1.3-1.3l2.5,0.3l0.9-0.8c0,0,1.6,0,4.6,0.7
				c0,0,2.7,0.4,3.6-1.9l0.9,0.5l2.8-1.8l-0.1-1.8l-0.7-1.8c0,0-0.2-2.7,0.9-4.1c0,0,0.9-1.4,1-2.3c0,0,2.8-3.1,3.3-5.3l2.8-0.8
				l0.3-1.8l1.8-0.2l0.7-0.7l1.7,0.3l1.6-0.8l-0.5-1.7l0.3-0.8l1.6,0.6l2-2.3l1.4-0.9c0,0,0.3-1,0.3-1.4h2v-0.9
				c3.4,1.6,8.3,2.4,13.1-2c0.6,0.5,1.4,1.3,2,2l1.5,2.2l1.6-1.6l-0.2-0.7l1.1-0.9l0.8-2.9l2.6-2.1l2.1-2.8l2.2-2.1l1.2-1.8
				c0,0,2.2-1.2,2.4-2.4l3.5-1l0.1-1.1l2.9-1.8l0.8-0.3l1.9-1.7l2.3-0.1l1.8-0.8l1.6-0.3c0,0,1.1-2.2,0.8-2.8c0,0,0.5-2.2-0.1-3.3
				l0.8-1.7L268.5,43.6z"/>
		</g>
	</g>
	<g>
		<path class="st1" d="M155.2,4.3h25.9l48.8-0.1l18.2,0.3l0.3,3.8c0,0,0.8,1,1,1.1c0.3,0.1,1,1,1.4,1.1s0.8,0.3,1,0.3
			c0.3,0.1,0.6,0.6,0.6,1s0.4,1.2,0.5,1.6s0.8,1.6,1,1.8s0.6,1.2,0.6,1.6s0,1.8,0.3,2s1.3,0.9,1.3,0.9V20v0.8l0.5,1h-1.7l-0.3-1.5
			c0,0-0.4-1-0.6-1.3s-0.4-0.8-0.4-0.8L253,17l-1.6-1.3h-0.6l-0.9,1.3l0.1,1.4l0.6,1.4l0.3,3.3l0.2,2.8l0.4,1.8l0.1,1.8l0.8-0.4
			l0.6-0.7l0.5-0.4l0.8,0.8l0.8,0.3l0.3-1.1l0.6,0.3l0.3-1.3l0.8,0.6l0.4,0.7l1.2,0.3l0.6,0.6l0.5,0.5l-0.1,1.2l0.1,0.9l0.2,0.7v0.9
			l-0.1,0.8l-0.3,1.2l-0.8,0.3v1.2l0.2,0.6l0.7,0.1V38l-0.6,1.3l-0.5,0.6l-0.8,0.7l-2.2-1.9l-0.7,1.4l-0.6,0.9l-0.2,1l-1.3,0.3
			c0,0,0.3,1.3,0,1.7c-0.3,0.3-0.6,0.8-0.6,0.8l-0.3,0.5l-0.3,0.8c0,0-0.6-0.2-0.9-0.3c-0.3-0.1-0.6,0.5-0.6,0.5l-0.6,1.4l-0.3,0.5
			l-1.5,0.2l0.5,1.2l-0.3,0.3c0,0-1.3-0.8-1.8-1.2c-0.5-0.3-0.7-0.7-1.1-0.5s-0.7,0.6-0.7,0.6s-0.3-0.3-0.5-0.3
			c-0.3-0.1-0.6-0.3-0.8-0.5s-0.9-0.6-0.9-0.6l-0.3,0.8l-0.4,0.2l-0.8-0.7l-0.2-0.8l-0.7-0.6l-0.4-0.4l-0.5,0.6L239,47l-0.3,0.6
			l-0.5,0.3l-0.6-0.3l-0.4-0.5l-0.3-1.8l-0.3-0.3l-0.5-0.3l0.3-0.4l0.5-0.6l0.8,0.1l1.2-0.2l0.2-1.5l-0.9,0.7l-2.2,0.3h-1.3
			l-0.5-0.7h-0.6l0.3,1.8l0.6,0.5l0.7,0.3l0.6,0.8v1.3l0.3,0.3l-0.7,0.2"/>
		<polyline class="st1" points="130.9,4.4 132.8,4.4 135.1,4.4 		"/>
		<polyline class="st1" points="100.7,4.4 104.7,4.4 107,4.4 		"/>
		<path class="st1" d="M68.8,53.9h-6.7l0.2,0.9l-0.6,0.5l-0.6,0.5c0,0-2.8,0.3-3.4,0.6c-0.7,0.3-3.3,1.4-3.6,1.8
			c-0.3,0.3-1.3,1.3-1.3,1.3s-5.8,0.7-6.4,0.8s-2.7,0.9-2.9,1.3c-0.3,0.4-0.8,1.3-0.8,1.3l-1.8,0.5L37.7,64H34l-5.4-0.2
			c0,0-5.2-0.5-6.3-0.4c-1.1,0.1-9.3,0-9.6,0.1c-0.3,0.1-6.9,0-6.9,0s-1.6-1.2-2.2-1.8C3,61,2.3,59.4,2,59s-0.3-2.2-0.3-2.2
			c0-0.7-0.1-1.7,0.2-2.2c0.3-0.6,0.5-1,1-1.8s1.4-1.9,1.7-2.1c0.4-0.2,0.8-0.4,1.5-0.3s2.5-0.2,2.8,0c0.2,0.2,0.6,0.8,1.2,1.2
			c0.6,0.4,1.7,0.8,2.1,0.8s1.1-0.1,1.6-0.6s1-1.1,1.2-1.6c0.2-0.6,0.1-1.6,0.2-2.2c0.1-0.6,0.6-1.9,1.7-2.6
			c1.1-0.7,1.8-1.5,2.6-1.9s1.5-1.3,2-1.3s0.6,0,1.2-0.2c0.6-0.2,0.6-0.2,1.2-0.4c0.6-0.2,1.1-0.3,1.5-0.4s0.6-0.1,1-0.1
			c0.4,0.1,0.9-0.1,1.2-0.1c0.4,0,1.1,0.1,1.1,0.1s0.6,0.6,0.9,0.6s1.3-0.1,1.5-0.2s0.4-1,0.4-1s0.4,0.1,0.8-0.3
			c0.4-0.4,0.9-0.7,1.2-0.9c0.2-0.2,0.4-0.8,0.8-0.8s1-0.6,1.2-0.6c0.2-0.1,0.6-0.3,0.6-0.3l1.1-0.1l0.2-0.9c0,0,0.1-0.1,0.3-0.6
			c0.2-0.4,1.4-0.4,1.5-0.6s0.5-0.3,0.7-0.3s0.7-0.2,0.7-0.2s0.5-0.3,0.6-0.6c0.1-0.2,0.5-0.7,0.5-0.7s0.4,0,0.6-0.1s0.9,0,1.1,0
			s1.1-0.1,1.5-0.1s0.9,0.1,1.1,0s0.1-0.9,0.3-1.1c0.2-0.2,0.7-0.6,0.7-0.6s0.2-0.6,0.2-0.8c0-0.2,0.2-0.7,0.2-0.7l0.4-0.9
			c0,0-0.1-0.5-0.1-0.7c0.1-0.2,0.4-0.7,0.4-0.7l0.4-0.4l0.1-0.1c0,0-0.1-0.4,0.5-0.2c0.6,0.2,1.4-0.1,1.7-0.1
			c0.4,0,1.8-1.7,1.8-1.7s0.8-1,1-1s2,0,2,0s0.7,0.9,0.8,1.3c0.1,0.4,0.2,1,0.3,1.2c0.1,0.2,0.7,0.2,0.9,0.2
			c0.2,0.1,1.1,0.4,1.4,0.1c0.3-0.4,0.5-1,0.6-1.2s1.5-2.5,1.5-2.5l1.7-1.4l1.4-0.7c0,0,1.9-0.7,2.2-0.7c0.2,0,1,0,1.2-0.1
			s0.8-0.4,1.1-0.2c0.2,0.1,1.4,1.1,1.4,1.1"/>
		<path class="st1" d="M113.8,63.7h-1c0,0-2.8-3.1-3-3.4c-0.2-0.3-2.5-2.3-2.5-2.3"/>
		<line class="st1" x1="137.3" y1="63.7" x2="132.2" y2="63.9"/>
		<polyline class="st1" points="221.1,72.8 220.5,73.9 218.7,73.9 218.6,74.8 218,75.8 217,76.5 215.9,77.8 215.4,78.4 214.1,77.5 
			213.2,76.9 213.3,76.3 212.3,76.2 211.6,76 211.6,77.1 212.4,77.5 212.6,78.5 213.4,78.5 213.3,78.9 212.6,79.6 211.4,80 
			211.4,80.4 212.2,80.5 213,80.1 213.2,80.8 212.5,81.1 210.9,81 210,81.5 207.8,82 207.6,83.1 207.4,83.7 205.3,84.2 204.1,86.6 
			203,88.1 201.4,90.4 200.9,91.8 199.9,93.7 199.6,95.4 199.5,97.8 199.9,98.8 200,99.9 199.2,100.4 198.6,100.8 198.3,100 
			198.3,99 198.3,97 198.1,94.7 197.8,93.5 197.1,93 197.3,95 197.1,96.2 197.1,97.6 197.1,99 197.2,100.2 196.9,100.9 195.4,102.5 
			194.3,102.7 192.4,102.3 190.1,101.9 188.3,102.4 187.9,102.8 186.6,102.7 186.2,102 185.5,102.5 184.3,103.7 179.7,103.7 
			179.2,102.7 178.8,102 178.2,102 177.8,101.4 177.3,100.7 176.6,100.2 176.2,100.1 175.4,99.1 175.1,98.5 174.9,98 173.7,97.7 
			173.2,97.2 173,96 172.2,95.7 171.9,94.5 170.7,94.7 171.1,93.8 169.9,93.5 168.2,91.7 167.1,90 166.1,89.9 165.7,88.8 
			164.2,88.2 163.7,86.6 161.7,84.7 160.6,83.9 159.3,82.3 155.5,78.5 147.6,70.5 142.7,65.8 		"/>
		<polyline class="st1" points="237.6,60.8 238.1,60.8 238.5,60.2 238.6,59.5 239.3,58.8 239.8,59.1 239.9,59.8 240.2,60.3 
			240.4,61 240,61.4 240.1,61.9 240.3,62 240,62.5 239.8,62.8 239.8,63.4 240.1,63.7 240.7,63.1 241.8,63.3 242.3,63.3 242.5,62.4 
			242.9,62 242.9,60.5 243.8,60.5 244.1,60.9 244.4,60.9 244.5,63.9 243.7,64 243.4,64.4 243.4,64.8 242.5,64.8 242.3,65.3 
			241.5,65.6 240.6,65.9 240.6,66.5 241,67 240.6,67.3 240.5,68.1 239.7,67.8 239.4,68.6 238.7,68.9 238.5,71.4 237.9,71.3 
			237.5,71.4 237.3,71.7 237,71.6 236.8,70.7 236.9,70.3 237.1,69.1 237,68.2 236,67.1 235.9,69.5 235.8,70.7 235.4,70.7 		"/>
		<polyline class="st1" points="234.9,50.1 235.3,50.1 235.8,50.2 237.1,50 237.8,50.4 237.8,51.4 237.5,52 237.5,53.3 237,53.3 
			236.2,53.4 235.7,54 235.5,54.4 235.8,55.5 236.2,55.7 236.3,56.6 235.7,57.9 234.9,58.4 234.9,59.8 		"/>
		<polygon class="st2" points="257,18.3 257.7,19.5 258.2,20.1 257.9,20.5 258.4,21.1 258.6,22.3 259.1,22.8 259.8,23.3 260,22.8 
			259.5,21.9 259.1,21.4 258.7,20.1 257.9,18.4 257.5,17.8 		"/>
		<polygon class="st2" points="253.2,5.9 253.3,7.3 253.6,8.3 254,9 254.5,9.7 254.6,8.5 254.2,8 253.8,7.1 253.5,6.1 		"/>
		<polygon class="st2" points="254.3,11.5 254.5,12.5 254.9,13.1 255.4,13.2 255.5,12.3 255.1,11.8 254.6,11.4 		"/>
		<polygon class="st2" points="260,24.1 260.2,25.4 260.5,26 261,26.8 261.4,27.5 262.1,27.5 262.4,27 261.7,26.4 261.6,25.6 
			260.8,24.8 260.5,24.3 		"/>
		<polygon class="st2" points="262.5,28.5 262.9,29.5 263.1,30.2 263.9,31.4 264.3,32.6 264.8,33.7 264.9,34.7 265.7,34.7 266,34.3 
			265.5,33.8 265.6,33 264.9,32.4 264.5,31.3 264.2,30.6 264,29.7 264,29 263.1,28.7 		"/>
		<polygon class="st2" points="266.1,35.4 266.1,35.9 266.2,36.5 266.5,37.5 267,38.1 267.1,39.1 267,39.9 266.3,40.4 266.8,40.9 
			266.9,41.7 266.7,42.1 266.5,42.7 266.4,43.7 266.4,44.9 266.2,45.7 266.2,46.7 266.7,47.3 266.9,46.4 266.6,45.9 266.9,45.1 
			267,44.2 267.5,43.9 267.2,43.1 267.6,42.4 267.5,39.7 267.2,37.6 266.9,36.4 		"/>
		<polygon class="st2" points="266.1,48.2 265.3,50 264.2,50.5 263,50.8 262.3,51.2 262.4,51.8 263.1,52.1 264.5,51.5 265.8,51.3 
			266.2,50.8 266.8,49.4 266.5,48.8 266.9,48.3 		"/>
		<polygon class="st2" points="259.5,53.2 258.4,53.1 257.7,53.4 256.8,54 255.1,55 254,55.1 253.9,55.8 253.4,55.4 253.2,56.1 
			253,56.9 252.6,56.9 252.7,57.5 253.2,57.4 253.9,57 254.4,56.9 254.9,56 257.5,54.2 258.3,53.9 		"/>
		<polygon class="st2" points="250.6,58 249.7,58.7 249.1,59.4 248.7,60.3 249.4,60 250.5,59.1 250.9,58.4 		"/>
		<polygon class="st2" points="248.2,62.4 247.2,62.2 246.9,63 246.4,63.4 246.5,64.1 247.2,63.5 247.8,62.8 		"/>
		<polygon class="st2" points="243.5,66.7 243.2,67.2 243.5,67.4 243.9,66.7 		"/>
		<path class="st2" d="M241.9,68.3c0,0-0.6,0-0.6,0.3s-0.8,1.4-0.8,1.4l-0.9,1.5l-0.4,1.5l-0.6,0.3l-1.5,0.1l0.5,0.4l0.6,0.9
			l0.3,0.3l0.5-0.5l-0.1-0.6l0.9-0.8l0.6-1.5l0.7-1.8l0.6-0.7L241.9,68.3z"/>
	</g>
</g>
<g id="Layer_1_1_">
	<g>
		<g>
			<path class="st2" d="M195.7,72.5h2.8v0.9h-6.1v-0.9h2.2V45.3h-2.2v-0.9h5.7L210,67.7h0.1V45.3h-3.2v-0.9h6.6v0.9h-2.2v28.1h-1.5
				l-14-27.7h-0.1V72.5z"/>
		</g>
	</g>
	<g>
		<g>
			<path class="st2" d="M68.7,34.4v-1h2.2V3.6h-2.2v-1h15.2l11.4,24.1h0.1v-23H92v-1h7.3v1h-2.7v30.8H86.4L72.2,4.1h-0.1v29.3h3.5v1
				C75.6,34.4,68.7,34.4,68.7,34.4z"/>
			<path class="st3" d="M68.7,34.4v-1h2.2V3.6h-2.2v-1h15.2l11.4,24.1h0.1v-23H92v-1h7.3v1h-2.7v30.8H86.4L72.2,4.1h-0.1v29.3h3.5v1
				C75.6,34.4,68.7,34.4,68.7,34.4z"/>
		</g>
	</g>
	<g>
		<g>
			<path class="st2" d="M129,12.6h-1.9l-2.3-5.2c-1.5-3.4-2.5-4.5-4.6-4.5c-3.2,0-5.8,2.8-5.8,15.6c0,13.8,2.8,15.6,5.5,15.6
				c4.2,0,5-3.1,8-11.2h2.2v10c-2.8,1.3-6.9,2.2-10.8,2.2c-10.5,0-18-5.5-18-16.7c0-10,8-16.7,18.8-16.7c3.3,0,6.6,0.7,9.1,2.2v8.7
				H129z"/>
			<path class="st3" d="M129,12.6h-1.9l-2.3-5.2c-1.5-3.4-2.5-4.5-4.6-4.5c-3.2,0-5.8,2.8-5.8,15.6c0,13.8,2.8,15.6,5.5,15.6
				c4.2,0,5-3.1,8-11.2h2.2v10c-2.8,1.3-6.9,2.2-10.8,2.2c-10.5,0-18-5.5-18-16.7c0-10,8-16.7,18.8-16.7c3.3,0,6.6,0.7,9.1,2.2v8.7
				H129z"/>
		</g>
	</g>
	<g>
		<g>
			<path class="st2" d="M140.8,17.6h3.1c6.4,0,10.2,2.3,10.2,7.5c0,5.6-3.7,8.2-10,8.2h-3.3V17.6z M137.3,33.4h-2.5v1.1h9.1
				c8.7,0,13.6-3.5,13.6-8.9c0-6.2-5.2-8.2-10.4-8.7v-0.1c5.4-0.9,8.4-3.1,8.4-7.4c0-4.4-3.7-8.1-12.1-8.1h-8.6v1.1h2.5V33.4z
				 M140.8,2.3h2.3c6.1,0,9.1,2.3,9.1,7.1c0,4.2-2.9,7.2-10,7.2h-1.4V2.3z"/>
		</g>
	</g>
	<g>
		<g>
			<path class="st2" d="M161.3,22c0-7.9,2.1-12.1,6.5-12.1s6.5,4.2,6.5,12.1s-2.1,12.1-6.5,12.1C163.5,34.1,161.3,29.9,161.3,22z
				 M158.7,22c0,8,3.7,12.9,9.1,12.9c5.4,0,9.1-4.9,9.1-12.9s-3.7-12.9-9.1-12.9C162.4,9.1,158.7,14,158.7,22z"/>
		</g>
	</g>
	<g>
		<g>
			<path class="st2" d="M184.5,12.9L184.5,12.9l3.4,10.8h-6.7L184.5,12.9z M181,34.3v-0.8h-2.7l2.7-9h7.2l2.7,9h-2.2v0.8h6.2v-0.8
				h-1.5l-7.5-24.2h-1.3l-7.4,24.2h-1.7v0.8H181z"/>
		</g>
	</g>
	<g>
		<g>
			<path class="st2" d="M203.2,34.4h-6.4v-0.8h1.9V10.3h-1.9V9.5h8.7c5,0,7.5,2.4,7.5,6c0,4-3.8,6-8.2,6h-0.4l9,12.2h1.7v0.8h-4.2
				L201.4,21h1.2c6,0,7.8-2.4,7.8-5.4c0-3.2-1.8-5.2-5.4-5.2h-3.7v23.3h1.9L203.2,34.4L203.2,34.4z"/>
		</g>
	</g>
	<g>
		<g>
			<path class="st2" d="M221,10.4h1.7c6.6,0,9.5,3.8,9.5,11.6s-2.8,11.6-9.5,11.6H221V10.4z M216.6,10.4h1.9v23.1h-1.9v0.8h6.2
				c7.2,0,11.9-3.5,11.9-12.3c0-8.9-4.7-12.3-11.9-12.3h-6.2V10.4z"/>
		</g>
	</g>
	<g>
		<g>
			<path class="st2" d="M87.5,72.3h3.4v1.1h-7.6v-1.1H86V38.6h-2.7v-1.1h7.1l14.8,28.9h0.1V38.7h-4v-1.1h8.1v1.1h-2.7v34.8h-1.8
				L87.6,39.2h-0.1V72.3z"/>
		</g>
	</g>
	<g>
		<g>
			<path class="st2" d="M114.5,45.3h-2.2v-0.9h8v0.9h-2.8v21.3c0,3.4,1.6,6.2,5.8,6.2c4.5,0,6.9-2.4,6.9-8.4V45.2h-3.3v-0.9h6.6v0.9
				h-2.2v19.1c0,6.5-2.6,9.7-8.7,9.7c-4.7,0-8.2-2.5-8.3-7.6V45.3H114.5z"/>
		</g>
	</g>
	<g>
		<g>
			<path class="st2" d="M143.8,73.4h-7.4v-0.9h2.2V45.3h-2.2v-0.9h10.2c5.9,0,8.7,2.8,8.7,7c0,4.6-4.4,7-9.6,7h-0.4l10.5,14.2h2v0.9
				h-5l-11.1-15.8h1.4c7.1,0,9.1-2.8,9.1-6.3c0-3.8-2.1-6-6.3-6h-4.3v27.2h2.2L143.8,73.4L143.8,73.4z"/>
		</g>
	</g>
	<g>
		<g>
			<path class="st2" d="M174.5,53.5l-1.3-4.9c-0.8-3-2-3.9-4.8-3.9c-3.4,0-6,2-6,5.6c0,3.1,1.5,3.9,6.5,6.3c6.5,3.1,8,4.5,8,8.9
				c0,4.7-3.4,8.6-9.5,8.6c-2.5,0-5-0.8-7-2.6v-8.9h0.9c2.1,7.4,2,10.5,6.1,10.5c4.2,0,6.9-3.1,6.9-7.3c0-3.7-1.8-4.5-6.8-6.8
				c-4.8-2.2-7.5-3.8-7.5-7.8c0-3.4,2.1-7.6,8.4-7.6c2.9,0,5,0.7,6.9,1.7v8.1h-0.8V53.5z"/>
		</g>
	</g>
	<g>
		<g>
			<path class="st2" d="M188.4,73.4H181v-0.9h2.2V45.3H181v-0.9h7.4v0.9h-2.2v27.2h2.2V73.4z"/>
			<path class="st3" d="M188.4,73.4H181v-0.9h2.2V45.3H181v-0.9h7.4v0.9h-2.2v27.2h2.2V73.4z"/>
		</g>
	</g>
	<g>
		<g>
			<path class="st2" d="M234.6,71.4c-2,1.6-4.5,2.7-7.3,2.7c-7,0-11.6-6-11.6-14.9s5-15.5,12.1-15.5c2.5,0,4.2,0.7,6,1.8v7.9h-0.9
				c-1.7-7.3-1.9-8.8-5.3-8.8c-5.7,0-8.9,6.2-8.9,14.6c0,9.7,3.8,13.9,8.6,13.9c2,0,3.5-0.8,4.6-1.9v-9.6h-3.7v-0.8h8.1v0.9h-1.7
				L234.6,71.4L234.6,71.4z"/>
		</g>
	</g>
	<g>
		<g>
			<path class="st2" d="M76.4,70.3c-4,0-6.1-2-6.1-6s2.1-6,6.1-6s6.1,2,6.1,6C82.5,68.4,80.4,70.3,76.4,70.3z M76.4,72.7
				c4,0,6.5-3.4,6.5-8.3c0-5-2.5-8.3-6.5-8.3s-6.5,3.4-6.5,8.3S72.3,72.7,76.4,72.7z"/>
		</g>
	</g>
	<g>
		<g>
			<path class="st2" d="M82.6,45.8v6.3h-0.4v-1.7H70.5v1.7h-0.4V37.5H74v0.7c-2.8,1.3-3.5,1.3-3.5,2.8v7h5.4v-2.7
				c0-1.4-0.6-2.1-2.4-2.4v-0.7h5.3v0.7c-1.9,0.3-2.4,1-2.4,2.4V48h5.9v-2.3L82.6,45.8L82.6,45.8z"/>
		</g>
	</g>
</g>
</svg>
