<?xml version="1.0" encoding="utf-8"?>
<!-- Generator: Adobe Illustrator 24.0.0, SVG Export Plug-In . SVG Version: 6.00 Build 0)  -->
<svg version="1.1" id="Layer_1" xmlns="http://www.w3.org/2000/svg" xmlns:xlink="http://www.w3.org/1999/xlink" x="0px" y="0px"
	 viewBox="0 0 119.3 22.1" style="enable-background:new 0 0 119.3 22.1;" xml:space="preserve">
<style type="text/css">
	.st0{fill:#767171;}
	.st1{fill:#33669A;}
	.st2{fill:#006837;}
</style>
<title>Asset 3</title>
<g id="Layer_2_1_">
	<g id="Layer_1-2">
		<path d="M0.5,7l3-0.2c0,0.4,0.2,0.8,0.4,1.1c0.3,0.4,0.9,0.7,1.4,0.6c0.4,0,0.8-0.1,1.1-0.3C6.8,8,6.8,7.4,6.5,7
			c0-0.1-0.1-0.1-0.2-0.2C6.1,6.6,5.6,6.4,4.8,6.2C3.4,5.9,2.4,5.5,1.8,5C1.2,4.5,0.9,3.7,0.9,3c0-0.5,0.2-1.1,0.5-1.5
			C1.7,1,2.2,0.6,2.7,0.4C3.3,0.1,4.2,0,5.2,0c1.3,0,2.3,0.2,3,0.7S9.3,2,9.5,3.1l-3,0.2c0-0.4-0.2-0.7-0.5-1C5.7,2,5.3,1.9,4.9,1.9
			C4.6,1.9,4.3,2,4.1,2.1C3.9,2.3,3.8,2.5,3.8,2.7C3.8,2.9,3.9,3,4,3.2c0.1,0.1,0.5,0.3,1.1,0.4c1.4,0.3,2.4,0.6,3,0.9
			c0.5,0.2,1,0.6,1.3,1.1c0.3,0.5,0.4,1,0.4,1.5c0,0.6-0.2,1.3-0.5,1.8c-0.4,0.6-0.9,1-1.5,1.3c-0.8,0.3-1.6,0.5-2.5,0.4
			c-1.7,0-2.9-0.3-3.6-1C1,8.9,0.6,8,0.5,7z"/>
		<path d="M11.4,0.2h3.2v3.6H18V0.2h3.2v10.2H18V6.3h-3.5v4.1h-3.2V0.2z"/>
		<path d="M23.3,0.2h8.5v2.2h-5.3V4h4.9v2.1h-4.9v2h5.5v2.3h-8.6V0.2z"/>
		<path d="M33.6,0.2h5.3c1.1,0,2,0.3,2.6,0.8c0.6,0.5,0.9,1.3,0.9,2.3c0,1-0.3,1.8-0.9,2.4c-0.6,0.6-1.6,0.9-2.8,0.9h-1.7v3.8h-3.2
			L33.6,0.2z M36.8,4.5h0.8c0.6,0,1-0.1,1.3-0.3c0.2-0.2,0.4-0.5,0.4-0.8c0-0.3-0.1-0.6-0.3-0.8c-0.2-0.2-0.6-0.3-1.2-0.3h-0.9
			L36.8,4.5z"/>
		<path d="M43.4,7l3-0.2c0,0.4,0.2,0.8,0.4,1.1c0.3,0.4,0.9,0.6,1.4,0.6c0.4,0,0.7-0.1,1-0.3c0.2-0.2,0.4-0.4,0.4-0.7
			c0-0.3-0.1-0.5-0.3-0.7c-0.2-0.2-0.8-0.4-1.6-0.6c-1.4-0.3-2.4-0.7-3-1.2c-0.6-0.5-0.9-1.2-0.9-2c0-0.5,0.2-1,0.5-1.5
			c0.3-0.5,0.8-0.9,1.4-1.1C46.2,0.1,47.1,0,48.1,0c1.3,0,2.3,0.2,3,0.7s1.1,1.3,1.2,2.3l-3,0.2c0-0.4-0.2-0.7-0.5-1
			c-0.3-0.2-0.7-0.3-1.1-0.3c-0.3,0-0.6,0.1-0.8,0.2c-0.2,0.1-0.3,0.3-0.3,0.6c0,0.2,0.1,0.3,0.2,0.4c0.1,0.1,0.5,0.3,1.1,0.4
			c1.4,0.3,2.4,0.6,3,0.9c0.5,0.2,1,0.6,1.3,1.1c0.3,0.5,0.4,1,0.4,1.5c0,0.6-0.2,1.3-0.5,1.8c-0.4,0.6-0.9,1-1.5,1.3
			c-0.8,0.3-1.6,0.5-2.5,0.4c-1.7,0-2.9-0.3-3.6-1C43.9,8.9,43.5,8,43.4,7z"/>
		<path class="st0" d="M0,11.7h3l1.1,5.7l1.6-5.7h3l1.6,5.7l1.1-5.7h3l-2.3,10.2H9l-1.8-6.4l-1.8,6.4H2.3L0,11.7z"/>
		<path class="st0" d="M13.8,16.8c0-1.7,0.5-3,1.4-3.9s2.2-1.4,3.9-1.4c1.7,0,3,0.5,3.9,1.4c0.9,0.9,1.4,2.2,1.4,3.8
			c0,1.2-0.2,2.2-0.6,2.9c-0.4,0.8-1,1.4-1.7,1.8c-0.8,0.4-1.7,0.6-2.8,0.6c-1.1,0-2.1-0.2-2.9-0.6c-0.8-0.4-1.4-1-1.8-1.7
			C14,19,13.8,18,13.8,16.8z M17,16.8c0,1,0.2,1.8,0.6,2.2c0.4,0.5,1,0.7,1.6,0.7c0.6,0,1.2-0.2,1.6-0.7c0.4-0.4,0.6-1.2,0.6-2.4
			c0-1-0.2-1.7-0.6-2.1c-0.4-0.5-1-0.7-1.6-0.7c-0.6,0-1.2,0.2-1.5,0.7C17.1,15,17,15.8,17,16.8z"/>
		<path class="st0" d="M25.2,21.9V11.7h5.3c0.8,0,1.5,0.1,2.2,0.3c0.5,0.2,1,0.5,1.3,0.9c0.3,0.5,0.5,1.1,0.5,1.7c0,1-0.5,2-1.4,2.5
			c-0.3,0.2-0.7,0.3-1.1,0.4c0.3,0.1,0.6,0.2,0.8,0.4c0.2,0.2,0.4,0.3,0.5,0.5c0.2,0.2,0.3,0.4,0.4,0.6l1.5,3h-3.6L30,18.8
			c-0.1-0.3-0.3-0.6-0.6-0.8c-0.2-0.2-0.5-0.2-0.8-0.2h-0.3v4.2L25.2,21.9z M28.4,15.8h1.3c0.3,0,0.6-0.1,0.8-0.1
			c0.2,0,0.4-0.2,0.5-0.3c0.3-0.4,0.3-1-0.1-1.4c-0.2-0.2-0.6-0.3-1.2-0.3h-1.4V15.8z"/>
		<path class="st0" d="M35.4,11.7h3.2v3.9l3.3-3.9h4.2l-3.7,3.9l3.9,6.4h-3.9l-2.2-4.2l-1.6,1.7v2.5h-3.2V11.7z"/>
		<path class="st0" d="M46.4,11.7h7.8v2.2h-4.6v1.8h4v2.1h-4v4.2h-3.2V11.7z"/>
		<path class="st0" d="M54.6,16.8c0-1.7,0.5-3,1.4-3.9c0.9-0.9,2.2-1.4,3.9-1.4c1.7,0,3,0.5,3.9,1.4c0.9,0.9,1.4,2.2,1.4,3.8
			c0,1.2-0.2,2.2-0.6,2.9c-0.4,0.8-1,1.4-1.7,1.8c-0.8,0.4-1.7,0.6-2.8,0.6c-1.1,0-2.1-0.2-2.9-0.6c-0.8-0.4-1.4-1-1.8-1.7
			C54.8,19,54.6,18,54.6,16.8z M57.7,16.8c0,1,0.2,1.8,0.6,2.2c0.8,0.9,2.2,0.9,3.1,0.1c0,0,0,0,0.1-0.1c0.4-0.4,0.6-1.2,0.6-2.4
			c0-1-0.2-1.7-0.6-2.1c-0.4-0.5-1-0.7-1.6-0.7c-0.6,0-1.2,0.2-1.5,0.7C57.9,15,57.7,15.8,57.7,16.8z"/>
		<path class="st0" d="M66,21.9V11.7h5.3c0.8,0,1.5,0.1,2.2,0.3c0.5,0.2,1,0.5,1.3,0.9c0.3,0.5,0.5,1.1,0.5,1.7c0,1-0.5,2-1.4,2.5
			c-0.3,0.2-0.7,0.3-1.1,0.4c0.3,0.1,0.6,0.2,0.8,0.4c0.2,0.2,0.4,0.3,0.5,0.5c0.2,0.2,0.3,0.4,0.4,0.6l1.5,3h-3.6l-1.7-3.1
			c-0.1-0.3-0.3-0.6-0.6-0.8c-0.2-0.2-0.5-0.2-0.8-0.2h-0.3v4.2L66,21.9z M69.2,15.8h1.3c0.3,0,0.6-0.1,0.8-0.1
			c0.2,0,0.4-0.2,0.5-0.3c0.3-0.4,0.3-1-0.1-1.4c-0.2-0.2-0.6-0.3-1.2-0.3h-1.4V15.8z"/>
		<path class="st0" d="M82.7,17.7l2.8,0.8c-0.2,0.7-0.5,1.4-0.9,1.9c-0.4,0.5-0.9,0.9-1.5,1.2c-0.7,0.3-1.5,0.4-2.3,0.4
			c-1.1,0-2-0.2-2.7-0.5c-0.8-0.4-1.4-1-1.8-1.7c-0.5-0.8-0.8-1.9-0.8-3.1c0-1.7,0.5-3,1.4-3.9c0.9-0.9,2.2-1.4,3.8-1.4
			c1.3,0,2.3,0.3,3,0.8c0.7,0.5,1.3,1.3,1.6,2.4l-2.8,0.6c-0.1-0.2-0.2-0.5-0.3-0.7c-0.2-0.2-0.4-0.4-0.6-0.6
			c-0.3-0.1-0.6-0.2-0.9-0.2c-0.7,0-1.3,0.3-1.6,0.9c-0.3,0.4-0.4,1.1-0.4,2c0,1.1,0.2,1.9,0.5,2.3c0.4,0.4,0.9,0.7,1.5,0.6
			c0.6,0,1.1-0.2,1.4-0.5C82.4,18.8,82.6,18.3,82.7,17.7z"/>
		<path class="st0" d="M86.1,11.7h8.5v2.2h-5.3v1.6h4.9v2.1h-4.9v2h5.5v2.3h-8.6V11.7z"/>
		<path class="st1" d="M56.4,0.2h3.2v3.6h3.5V0.2h3.2v10.2h-3.2V6.3h-3.5v4.1h-3.2V0.2z"/>
		<path class="st1" d="M68.3,0.2h8.5v2.2h-5.3V4h4.9v2.1h-4.9v2H77v2.3h-8.6V0.2z"/>
		<path class="st1" d="M85,8.7h-3.6l-0.5,1.7h-3.2l3.8-10.2h3.5l3.8,10.2h-3.3L85,8.7z M84.3,6.5l-1.1-3.7l-1.1,3.7H84.3z"/>
		<path class="st1" d="M89.8,0.2H93v7.7h4.9v2.5h-8.1V0.2z"/>
		<path class="st1" d="M97.9,0.2h9.6v2.5h-3.2v7.7h-3.2V2.7h-3.2V0.2z"/>
		<path class="st1" d="M108.9,0.2h3.2v3.6h3.5V0.2h3.2v10.2h-3.2V6.3h-3.5v4.1h-3.2V0.2z"/>
		<path class="st2" d="M98.7,11.7h3l3.9,5.7v-5.7h3v10.2h-3l-3.8-5.6v5.6h-3L98.7,11.7z"/>
		<path class="st2" d="M116.5,17.7l2.8,0.8c-0.2,0.7-0.5,1.4-0.9,1.9c-0.4,0.5-0.9,0.9-1.5,1.2c-0.7,0.3-1.5,0.4-2.3,0.4
			c-1.1,0-2-0.2-2.7-0.5c-0.8-0.4-1.4-1-1.8-1.7c-0.5-0.8-0.8-1.9-0.8-3.1c0-1.7,0.5-3,1.4-3.9c0.9-0.9,2.2-1.4,3.8-1.4
			c1.3,0,2.3,0.3,3,0.8c0.7,0.5,1.3,1.3,1.6,2.4l-2.8,0.6c-0.1-0.2-0.2-0.5-0.3-0.7c-0.2-0.2-0.4-0.4-0.6-0.6
			c-0.3-0.1-0.6-0.2-0.9-0.2c-0.7,0-1.3,0.3-1.6,0.9c-0.3,0.4-0.4,1.1-0.4,2c0,1.1,0.2,1.9,0.5,2.3c0.4,0.4,0.9,0.7,1.5,0.6
			c0.6,0,1.1-0.2,1.4-0.5C116.2,18.8,116.4,18.3,116.5,17.7z"/>
	</g>
</g>
</svg>
